<?xml version="1.0" encoding="UTF-8"?>
<!DOCTYPE svg PUBLIC "-//W3C//DTD SVG 1.1//EN" "http://www.w3.org/Graphics/SVG/1.1/DTD/svg11.dtd">
<svg xmlns="http://www.w3.org/2000/svg" version="1.1" width="512px" height="512px" style="shape-rendering:geometricPrecision; text-rendering:geometricPrecision; image-rendering:optimizeQuality; fill-rule:evenodd; clip-rule:evenodd" xmlns:xlink="http://www.w3.org/1999/xlink">
<g><path style="opacity:1" fill="#b4916c" d="M 195.5,411.5 C 195.923,409.219 195.256,407.552 193.5,406.5C 163.563,402.395 147.563,385.228 145.5,355C 146.77,330.906 158.437,314.073 180.5,304.5C 162.511,231.543 144.677,158.543 127,85.5C 114.242,84.6766 101.409,84.1766 88.5,84C 77.4117,76.1363 76.745,67.4697 86.5,58C 94.7608,56.8791 103.094,56.3791 111.5,56.5C 118.833,56.6667 126.167,56.8333 133.5,57C 144.238,60.0707 151.404,66.904 155,77.5C 160.012,98.5475 165.179,119.548 170.5,140.5C 278.165,141.333 385.832,141.833 493.5,142C 503.007,145.147 506.507,151.647 504,161.5C 490.178,205.787 476.512,250.12 463,294.5C 454.323,317.257 437.823,329.424 413.5,331C 339.5,331.333 265.5,331.667 191.5,332C 177.398,338.039 172.231,348.539 176,363.5C 182.51,375.791 192.677,380.625 206.5,378C 222.108,362.796 240.108,359.13 260.5,367C 266.062,369.894 271.062,373.561 275.5,378C 308.838,378.833 342.172,378.667 375.5,377.5C 390.032,363.216 407.032,359.383 426.5,366C 449.073,377.313 458.24,395.479 454,420.5C 444.275,447.784 425.108,458.618 396.5,453C 375.109,445.39 364.109,430.223 363.5,407.5C 337.833,407.5 312.167,407.5 286.5,407.5C 286.272,428.548 276.605,443.382 257.5,452C 231.794,459.22 212.294,451.387 199,428.5C 196.476,423.1 195.309,417.433 195.5,411.5 Z M 251.5,206.5 C 229.425,206.822 207.425,206.489 185.5,205.5C 183.15,194.099 180.483,182.766 177.5,171.5C 202.158,170.5 226.824,170.167 251.5,170.5C 251.5,182.5 251.5,194.5 251.5,206.5 Z M 266.5,170.5 C 282.833,170.5 299.167,170.5 315.5,170.5C 315.5,182.5 315.5,194.5 315.5,206.5C 299.167,206.5 282.833,206.5 266.5,206.5C 266.5,194.5 266.5,182.5 266.5,170.5 Z M 330.5,170.5 C 346.833,170.5 363.167,170.5 379.5,170.5C 379.5,182.5 379.5,194.5 379.5,206.5C 363.167,206.5 346.833,206.5 330.5,206.5C 330.5,194.5 330.5,182.5 330.5,170.5 Z M 460.5,205.5 C 438.242,206.489 415.908,206.822 393.5,206.5C 393.5,194.5 393.5,182.5 393.5,170.5C 419.167,170.5 444.833,170.5 470.5,170.5C 467.167,182.167 463.833,193.833 460.5,205.5 Z M 189.5,222.5 C 209.993,221.503 230.66,221.169 251.5,221.5C 251.5,231.5 251.5,241.5 251.5,251.5C 233.167,251.5 214.833,251.5 196.5,251.5C 194.926,241.539 192.592,231.873 189.5,222.5 Z M 266.5,221.5 C 282.833,221.5 299.167,221.5 315.5,221.5C 315.5,231.5 315.5,241.5 315.5,251.5C 299.167,251.5 282.833,251.5 266.5,251.5C 266.5,241.5 266.5,231.5 266.5,221.5 Z M 330.5,221.5 C 346.833,221.5 363.167,221.5 379.5,221.5C 379.5,231.5 379.5,241.5 379.5,251.5C 363.167,251.5 346.833,251.5 330.5,251.5C 330.5,241.5 330.5,231.5 330.5,221.5 Z M 393.5,221.5 C 413.833,221.5 434.167,221.5 454.5,221.5C 451.833,231.5 449.167,241.5 446.5,251.5C 428.833,251.5 411.167,251.5 393.5,251.5C 393.5,241.5 393.5,231.5 393.5,221.5 Z M 200.5,265.5 C 217.5,265.5 234.5,265.5 251.5,265.5C 251.5,277.833 251.5,290.167 251.5,302.5C 237.496,302.667 223.496,302.5 209.5,302C 206.268,289.906 203.268,277.739 200.5,265.5 Z M 266.5,265.5 C 282.833,265.5 299.167,265.5 315.5,265.5C 315.5,277.833 315.5,290.167 315.5,302.5C 299.167,302.5 282.833,302.5 266.5,302.5C 266.5,290.167 266.5,277.833 266.5,265.5 Z M 330.5,265.5 C 346.833,265.5 363.167,265.5 379.5,265.5C 379.5,277.833 379.5,290.167 379.5,302.5C 363.167,302.5 346.833,302.5 330.5,302.5C 330.5,290.167 330.5,277.833 330.5,265.5 Z M 393.5,265.5 C 409.514,265.167 425.514,265.501 441.5,266.5C 439.025,275.424 435.859,284.091 432,292.5C 427.765,297.867 422.265,301.034 415.5,302C 408.174,302.5 400.841,302.666 393.5,302.5C 393.5,290.167 393.5,277.833 393.5,265.5 Z M 238.5,390.5 C 255.761,392.687 261.594,402.021 256,418.5C 247.889,427.753 238.722,428.92 228.5,422C 220.444,412.124 221.111,402.791 230.5,394C 233.158,392.522 235.825,391.355 238.5,390.5 Z M 407.5,390.5 C 420.937,391.767 427.437,399.1 427,412.5C 421.933,425.861 412.767,429.694 399.5,424C 390.301,415.883 389.135,406.716 396,396.5C 399.575,393.798 403.408,391.798 407.5,390.5 Z"/></g>
<g><path style="opacity:1" fill="#b4916c" d="M 51.5,135.5 C 74.1691,135.333 96.8358,135.5 119.5,136C 123.277,138.911 124.444,142.744 123,147.5C 121.891,149.815 120.057,151.315 117.5,152C 96.1667,152.667 74.8333,152.667 53.5,152C 47.9051,149.646 46.0718,145.479 48,139.5C 49.1022,138.051 50.2689,136.718 51.5,135.5 Z"/></g>
<g><path style="opacity:1" fill="#b4916c" d="M 10.5,177.5 C 34.8356,177.333 59.1689,177.5 83.5,178C 89.7041,182.52 90.0374,187.52 84.5,193C 83.1667,193.333 81.8333,193.667 80.5,194C 58.5,194.667 36.5,194.667 14.5,194C 7.32028,192.825 4.82028,188.658 7,181.5C 8.37561,180.295 9.54227,178.962 10.5,177.5 Z"/></g>
<g><path style="opacity:0.855" fill="#b79570" d="M 185.5,205.5 C 207.425,206.489 229.425,206.822 251.5,206.5C 240.672,207.167 229.672,207.5 218.5,207.5C 207.146,207.499 196.146,206.832 185.5,205.5 Z"/></g>
<g><path style="opacity:0.856" fill="#b79570" d="M 330.5,170.5 C 330.5,182.5 330.5,194.5 330.5,206.5C 346.833,206.5 363.167,206.5 379.5,206.5C 363.008,207.497 346.342,207.83 329.5,207.5C 329.171,194.989 329.505,182.655 330.5,170.5 Z"/></g>
<g><path style="opacity:0.855" fill="#b79570" d="M 460.5,205.5 C 449.687,206.832 438.521,207.499 427,207.5C 415.662,207.5 404.495,207.167 393.5,206.5C 415.908,206.822 438.242,206.489 460.5,205.5 Z"/></g>
<g><path style="opacity:1" fill="#b4916c" d="M 47.5,218.5 C 75.8353,218.333 104.169,218.5 132.5,219C 138.955,220.817 141.121,224.984 139,231.5C 137.833,232.667 136.667,233.833 135.5,235C 105.167,235.667 74.8333,235.667 44.5,235C 42.6667,234.5 41.5,233.333 41,231.5C 38.998,224.835 41.1647,220.501 47.5,218.5 Z"/></g>
<g><path style="opacity:0.646" fill="#b89673" d="M 193.5,406.5 C 195.256,407.552 195.923,409.219 195.5,411.5C 194.691,409.972 194.024,408.306 193.5,406.5 Z"/></g>
</svg>
