<?xml version="1.0" encoding="UTF-8"?>
<!DOCTYPE svg PUBLIC "-//W3C//DTD SVG 1.1//EN" "http://www.w3.org/Graphics/SVG/1.1/DTD/svg11.dtd">
<svg xmlns="http://www.w3.org/2000/svg" version="1.1" width="417px" height="250px" style="shape-rendering:geometricPrecision; text-rendering:geometricPrecision; image-rendering:optimizeQuality; fill-rule:evenodd; clip-rule:evenodd" xmlns:xlink="http://www.w3.org/1999/xlink">
<g><path style="opacity:0.004" fill="#fefffe" d="M 373.5,-0.5 C 373.833,-0.5 374.167,-0.5 374.5,-0.5C 374.315,0.170143 373.981,0.170143 373.5,-0.5 Z"/></g>
<g><path style="opacity:0.004" fill="#fefffe" d="M 70.5,9.5 C 71.8333,10.1667 71.8333,10.1667 70.5,9.5 Z"/></g>
<g><path style="opacity:0.975" fill="#fdfdfd" d="M 377.5,81.5 C 376.348,86.9846 376.182,92.6513 377,98.5C 396.724,115.787 397.891,133.954 380.5,153C 367.187,161.752 353.52,162.419 339.5,155C 318.067,136.012 318.234,117.178 340,98.5C 339.696,92.5454 339.529,86.5454 339.5,80.5C 336.833,80.5 334.167,80.5 331.5,80.5C 331.51,91.0148 326.51,98.1815 316.5,102C 313.832,102.567 311.166,103.067 308.5,103.5C 308.5,147.833 308.5,192.167 308.5,236.5C 334.169,236.333 359.835,236.5 385.5,237C 389.487,240.713 389.487,244.38 385.5,248C 343.331,248.167 301.331,248.667 259.5,249.5C 258.833,249.5 258.167,249.5 257.5,249.5C 257.167,248.167 256.833,248.167 256.5,249.5C 188.5,249.5 120.5,249.5 52.5,249.5C 36.005,248.668 19.3384,248.168 2.5,248C 1.30943,247.302 0.309426,246.469 -0.5,245.5C -0.5,243.833 -0.5,242.167 -0.5,240.5C 0.316435,238.856 1.64977,237.69 3.5,237C 20.0741,236.176 36.5741,236.342 53,237.5C 52.869,191.52 52.369,145.52 51.5,99.5C 41.2579,92.9387 38.0913,83.9387 42,72.5C 53.7973,53.7337 65.9639,35.2337 78.5,17C 143.167,16.3333 207.833,16.3333 272.5,17C 284.833,34.6667 299.833,49.6667 317.5,62C 318.376,63.586 319.376,65.086 320.5,66.5C 342.51,67.7902 364.51,68.1236 386.5,67.5C 391.278,67.3906 395.944,67.8906 400.5,69C 403.392,71.5678 403.725,74.7345 401.5,78.5C 399.358,79.6005 397.192,80.6005 395,81.5C 389.068,80.1747 383.234,80.1747 377.5,81.5 Z M 84.5,28.5 C 90.8421,28.3338 97.1754,28.5005 103.5,29C 95.6587,42.1959 88.8253,56.3626 83,71.5C 73.8907,72.5054 64.724,73.0054 55.5,73C 58.9063,69.9488 61.073,66.1154 62,61.5C 64.7441,59.0163 66.7441,56.0163 68,52.5C 69.0674,51.8095 70.2341,51.3095 71.5,51C 71.1667,50.6667 70.8333,50.3333 70.5,50C 75.0448,42.6479 79.7114,35.4812 84.5,28.5 Z M 116.5,28.5 C 122.5,28.5 128.5,28.5 134.5,28.5C 131.655,39.2868 128.489,49.6202 125,59.5C 123.971,64.1436 123.138,68.8103 122.5,73.5C 113.149,72.6401 103.815,72.3068 94.5,72.5C 102.358,58.1167 109.692,43.4501 116.5,28.5 Z M 161.5,73.5 C 152.105,74.1377 143.105,73.4711 134.5,71.5C 138.968,57.3165 143.301,42.9832 147.5,28.5C 153.868,28.1703 160.202,28.5037 166.5,29.5C 165.005,39.7736 163.838,50.107 163,60.5C 162.346,59.3044 161.846,59.3044 161.5,60.5C 162.828,64.8636 162.828,69.1969 161.5,73.5 Z M 178.5,28.5 C 184.5,28.5 190.5,28.5 196.5,28.5C 198.166,41.825 199.832,55.1583 201.5,68.5C 201.449,70.0998 201.116,71.5998 200.5,73C 197.333,73.1667 194.167,73.3333 191,73.5C 185.329,72.9026 179.996,72.9026 175,73.5C 176.194,58.5299 177.361,43.5299 178.5,28.5 Z M 209.5,28.5 C 215.537,28.1707 221.537,28.5041 227.5,29.5C 232.604,43.6455 237.604,57.8122 242.5,72C 239.288,73.0787 235.955,73.5787 232.5,73.5C 226.504,73.0336 220.504,72.7002 214.5,72.5C 213.655,57.737 211.988,43.0703 209.5,28.5 Z M 241.5,28.5 C 248.09,28.189 254.59,28.5223 261,29.5C 268.163,43.649 275.33,57.8157 282.5,72C 273.255,72.817 264.089,72.6503 255,71.5C 250.792,57.0457 246.292,42.7123 241.5,28.5 Z M 288.5,54.5 C 295.002,60.1656 301.669,65.6656 308.5,71C 304.289,72.5339 299.956,72.8673 295.5,72C 293.031,66.2268 290.697,60.3934 288.5,54.5 Z M 351.5,79.5 C 352.224,83.3653 352.891,87.3653 353.5,91.5C 352.758,92.2868 351.925,92.9535 351,93.5C 350.227,88.7481 350.393,84.0815 351.5,79.5 Z M 363.5,79.5 C 364.805,81.3972 365.471,83.7305 365.5,86.5C 365.333,88.8333 365.167,91.1667 365,93.5C 363.745,92.7894 362.579,91.956 361.5,91C 362.488,87.2549 363.155,83.4216 363.5,79.5 Z M 54.5,83.5 C 62.8124,84.4839 71.1457,84.8173 79.5,84.5C 75.5883,88.3953 70.9216,91.0619 65.5,92.5C 60.2878,91.2793 56.6212,88.2793 54.5,83.5 Z M 94.5,83.5 C 102.86,83.1688 111.193,83.5021 119.5,84.5C 110.496,95.4855 102.163,95.1522 94.5,83.5 Z M 134.5,83.5 C 143.191,84.3813 151.858,84.7146 160.5,84.5C 151.171,95.4885 142.504,95.1551 134.5,83.5 Z M 175.5,84.5 C 184.009,83.1786 192.675,83.1786 201.5,84.5C 192.796,95.1569 184.129,95.1569 175.5,84.5 Z M 216.5,84.5 C 225.373,83.9325 234.373,83.7658 243.5,84C 239.994,88.5242 235.494,91.3575 230,92.5C 224.901,90.9134 220.401,88.2467 216.5,84.5 Z M 258.5,84.5 C 266.99,83.3431 275.657,83.1764 284.5,84C 280.811,87.8428 276.478,90.6761 271.5,92.5C 266.135,91.4603 261.802,88.7937 258.5,84.5 Z M 298.5,84.5 C 301.817,83.8348 305.317,83.5014 309,83.5C 323.75,83.0722 324.25,85.4055 310.5,90.5C 305.936,89.5516 301.936,87.5516 298.5,84.5 Z M 356.5,103.5 C 370.324,105.657 377.991,113.657 379.5,127.5C 377.746,139.586 370.746,146.253 358.5,147.5C 342.278,145.104 335.445,135.771 338,119.5C 342.217,111.774 348.384,106.441 356.5,103.5 Z M 296.5,114.5 C 296.5,155.167 296.5,195.833 296.5,236.5C 289.833,236.5 283.167,236.5 276.5,236.5C 276.908,200.814 276.408,165.147 275,129.5C 274.5,129 274,128.5 273.5,128C 250.318,127.798 227.152,127.298 204,126.5C 201.019,126.657 198.352,127.657 196,129.5C 194.257,165.507 194.091,201.507 195.5,237.5C 151.848,236.538 108.182,236.204 64.5,236.5C 64.8115,196.5 65.1448,156.5 65.5,116.5C 69.3953,115.775 73.3953,115.109 77.5,114.5C 80.0661,114.656 82.5661,114.322 85,113.5C 92.1078,114.868 99.2745,115.868 106.5,116.5C 113.413,115.395 120.247,114.061 127,112.5C 133.217,114.211 139.551,115.544 146,116.5C 153.481,115.303 160.981,114.303 168.5,113.5C 182.325,116.15 196.159,116.15 210,113.5C 216.453,114.571 222.953,115.237 229.5,115.5C 236.766,115.225 243.933,114.225 251,112.5C 264.553,116.093 278.219,116.427 292,113.5C 293.533,113.773 295.033,114.106 296.5,114.5 Z M 156.5,138.5 C 157.473,139.791 158.473,139.791 159.5,138.5C 159.833,139.5 160.167,140.5 160.5,141.5C 159.638,147.077 159.305,152.577 159.5,158C 151.546,157.637 143.546,157.47 135.5,157.5C 136.802,151.212 136.802,145.212 135.5,139.5C 142.687,139.825 149.687,139.491 156.5,138.5 Z M 118.5,139.5 C 120.167,139.5 121.833,139.5 123.5,139.5C 123.177,145.69 123.51,151.69 124.5,157.5C 116.35,158.493 108.017,158.826 99.5,158.5C 100.646,152.178 100.646,145.845 99.5,139.5C 105.833,139.5 112.167,139.5 118.5,139.5 Z M 207.5,139.5 C 226.171,140.661 244.838,140.661 263.5,139.5C 263.5,171.833 263.5,204.167 263.5,236.5C 244.833,236.5 226.167,236.5 207.5,236.5C 207.5,204.167 207.5,171.833 207.5,139.5 Z M 99.5,169.5 C 107.833,169.5 116.167,169.5 124.5,169.5C 123.167,176.167 123.167,182.833 124.5,189.5C 116.167,189.5 107.833,189.5 99.5,189.5C 99.5,182.833 99.5,176.167 99.5,169.5 Z M 135.5,169.5 C 143.833,169.5 152.167,169.5 160.5,169.5C 160.5,176.167 160.5,182.833 160.5,189.5C 152.167,189.5 143.833,189.5 135.5,189.5C 135.5,182.833 135.5,176.167 135.5,169.5 Z M 89.5,203.5 C 114.836,203.333 140.169,203.5 165.5,204C 166.451,207.057 166.784,210.223 166.5,213.5C 140.824,212.742 115.158,212.742 89.5,213.5C 89.5,210.167 89.5,206.833 89.5,203.5 Z"/></g>
<g><path style="opacity:0.004" fill="#fefffe" d="M 332.5,27.5 C 333.833,28.1667 333.833,28.1667 332.5,27.5 Z"/></g>
<g><path style="opacity:0.004" fill="#fefffe" d="M 386.5,54.5 C 387.833,55.1667 387.833,55.1667 386.5,54.5 Z"/></g>
<g><path style="opacity:0.528" fill="#878f89" d="M 134.5,71.5 C 143.105,73.4711 152.105,74.1377 161.5,73.5C 152.918,74.499 143.585,74.8323 133.5,74.5C 133.263,73.209 133.596,72.209 134.5,71.5 Z"/></g>
<g><path style="opacity:0.055" fill="#fefffe" d="M 377.5,81.5 C 378.833,82.1667 378.833,82.1667 377.5,81.5 Z"/></g>
<g><path style="opacity:0.055" fill="#fefffe" d="M 337.5,86.5 C 338.833,87.1667 338.833,87.1667 337.5,86.5 Z"/></g>
<g><path style="opacity:0.055" fill="#fefffe" d="M 406.5,87.5 C 407.833,88.1667 407.833,88.1667 406.5,87.5 Z"/></g>
<g><path style="opacity:0.055" fill="#fefffe" d="M 323.5,99.5 C 324.833,100.167 324.833,100.167 323.5,99.5 Z"/></g>
<g><path style="opacity:1" fill="#c0beb6" d="M 296.5,114.5 C 295.033,114.106 293.533,113.773 292,113.5C 278.219,116.427 264.553,116.093 251,112.5C 243.933,114.225 236.766,115.225 229.5,115.5C 222.953,115.237 216.453,114.571 210,113.5C 196.159,116.15 182.325,116.15 168.5,113.5C 160.981,114.303 153.481,115.303 146,116.5C 139.551,115.544 133.217,114.211 127,112.5C 120.247,114.061 113.413,115.395 106.5,116.5C 99.2745,115.868 92.1078,114.868 85,113.5C 82.5661,114.322 80.0661,114.656 77.5,114.5C 80.1046,113.408 82.938,112.741 86,112.5C 88.8289,113.203 91.6622,113.37 94.5,113C 90.5,112.333 90.5,111.667 94.5,111C 93.09,110.632 92.09,109.799 91.5,108.5C 92.2739,107.289 93.1072,107.289 94,108.5C 95.6511,106.598 95.9845,104.598 95,102.5C 99.308,106.043 103.808,106.377 108.5,103.5C 116.043,102.482 121.876,98.8156 126,92.5C 139.532,106.705 153.365,107.038 167.5,93.5C 177.789,104.192 189.456,106.025 202.5,99C 204.684,96.9835 206.684,94.8169 208.5,92.5C 216.359,102.174 226.359,105.341 238.5,102C 243.535,99.7996 247.868,96.633 251.5,92.5C 264.771,107.086 278.104,107.086 291.5,92.5C 294.194,94.5272 296.527,96.8605 298.5,99.5C 297.887,104.553 297.22,109.553 296.5,114.5 Z"/></g>
<g><path style="opacity:0.98" fill="#bab9ae" d="M 108.5,103.5 C 103.808,106.377 99.308,106.043 95,102.5C 95.9845,104.598 95.6511,106.598 94,108.5C 93.1072,107.289 92.2739,107.289 91.5,108.5C 92.09,109.799 93.09,110.632 94.5,111C 90.5,111.667 90.5,112.333 94.5,113C 91.6622,113.37 88.8289,113.203 86,112.5C 82.938,112.741 80.1046,113.408 77.5,114.5C 73.3953,115.109 69.3953,115.775 65.5,116.5C 64.5151,112.366 64.1818,108.032 64.5,103.5C 73.6043,103.698 80.771,100.031 86,92.5C 91.6657,99.8901 99.1657,103.557 108.5,103.5 Z"/></g>
<g><path style="opacity:0.055" fill="#fefffe" d="M 318.5,113.5 C 319.833,114.167 319.833,114.167 318.5,113.5 Z"/></g>
<g><path style="opacity:0.055" fill="#fefffe" d="M 409.5,119.5 C 410.833,120.167 410.833,120.167 409.5,119.5 Z"/></g>
<g><path style="opacity:0.055" fill="#fefffe" d="M 416.5,121.5 C 416.5,121.833 416.5,122.167 416.5,122.5C 415.83,122.019 415.83,121.685 416.5,121.5 Z"/></g>
<g><path style="opacity:0.973" fill="#fefefe" d="M 93.5,126.5 C 114.825,127.807 136.158,127.807 157.5,126.5C 161.569,126.504 165.569,127.004 169.5,128C 171.176,130.174 172.176,132.674 172.5,135.5C 171.674,153.372 171.341,171.372 171.5,189.5C 176.67,189.233 179.67,191.566 180.5,196.5C 179.409,206.525 178.076,216.358 176.5,226C 145.406,225.367 114.406,225.534 83.5,226.5C 80.8854,226.144 79.0521,224.811 78,222.5C 77.5581,213.129 77.3915,203.963 77.5,195C 79.8214,190.67 83.4881,188.67 88.5,189C 87.3409,169.573 87.1742,150.073 88,130.5C 88.3742,129.584 88.8742,128.75 89.5,128C 91.0581,127.79 92.3915,127.29 93.5,126.5 Z M 156.5,138.5 C 149.687,139.491 142.687,139.825 135.5,139.5C 136.802,145.212 136.802,151.212 135.5,157.5C 143.546,157.47 151.546,157.637 159.5,158C 159.305,152.577 159.638,147.077 160.5,141.5C 160.167,140.5 159.833,139.5 159.5,138.5C 158.473,139.791 157.473,139.791 156.5,138.5 Z M 118.5,139.5 C 120.167,139.5 121.833,139.5 123.5,139.5C 123.177,145.69 123.51,151.69 124.5,157.5C 116.35,158.493 108.017,158.826 99.5,158.5C 100.646,152.178 100.646,145.845 99.5,139.5C 105.833,139.5 112.167,139.5 118.5,139.5 Z M 99.5,169.5 C 99.5,176.167 99.5,182.833 99.5,189.5C 107.833,189.5 116.167,189.5 124.5,189.5C 123.167,182.833 123.167,176.167 124.5,169.5C 116.167,169.5 107.833,169.5 99.5,169.5 Z M 135.5,169.5 C 135.5,176.167 135.5,182.833 135.5,189.5C 143.833,189.5 152.167,189.5 160.5,189.5C 160.5,182.833 160.5,176.167 160.5,169.5C 152.167,169.5 143.833,169.5 135.5,169.5 Z M 89.5,203.5 C 89.5,206.833 89.5,210.167 89.5,213.5C 115.158,212.742 140.824,212.742 166.5,213.5C 166.784,210.223 166.451,207.057 165.5,204C 140.169,203.5 114.836,203.333 89.5,203.5 Z"/></g>
<g><path style="opacity:0.055" fill="#fefffe" d="M 315.5,134.5 C 316.833,135.167 316.833,135.167 315.5,134.5 Z"/></g>
<g><path style="opacity:0.024" fill="#c8cec7" d="M 118.5,139.5 C 120.265,138.539 122.265,138.205 124.5,138.5C 124.5,144.833 124.5,151.167 124.5,157.5C 123.51,151.69 123.177,145.69 123.5,139.5C 121.833,139.5 120.167,139.5 118.5,139.5 Z"/></g>
<g><path style="opacity:0.928" fill="#fefefe" d="M 255.5,179.5 C 254.322,187.55 249.988,190.383 242.5,188C 238.074,182.559 238.741,177.892 244.5,174C 249.859,172.679 253.526,174.513 255.5,179.5 Z"/></g>
<g><path style="opacity:0.055" fill="#fefffe" d="M 395.5,174.5 C 396.833,175.167 396.833,175.167 395.5,174.5 Z"/></g>
<g><path style="opacity:0.055" fill="#fefffe" d="M 323.5,175.5 C 324.833,176.167 324.833,176.167 323.5,175.5 Z"/></g>
<g><path style="opacity:0.055" fill="#fefffe" d="M 330.5,175.5 C 331.833,176.167 331.833,176.167 330.5,175.5 Z"/></g>
<g><path style="opacity:0.004" fill="#fefffe" d="M 9.5,210.5 C 10.8333,211.167 10.8333,211.167 9.5,210.5 Z"/></g>
</svg>
