<?xml version="1.0" encoding="UTF-8"?>
<!DOCTYPE svg PUBLIC "-//W3C//DTD SVG 1.1//EN" "http://www.w3.org/Graphics/SVG/1.1/DTD/svg11.dtd">
<svg xmlns="http://www.w3.org/2000/svg" version="1.1" width="500px" height="500px" style="shape-rendering:geometricPrecision; text-rendering:geometricPrecision; image-rendering:optimizeQuality; fill-rule:evenodd; clip-rule:evenodd" xmlns:xlink="http://www.w3.org/1999/xlink">
<g><path style="opacity:0.004" fill="#fefffe" d="M 333.5,17.5 C 334.833,18.1667 334.833,18.1667 333.5,17.5 Z"/></g>
<g><path style="opacity:0.004" fill="#fefffe" d="M 453.5,25.5 C 454.833,26.1667 454.833,26.1667 453.5,25.5 Z"/></g>
<g><path style="opacity:0.004" fill="#fefffe" d="M 452.5,30.5 C 453.833,31.1667 453.833,31.1667 452.5,30.5 Z"/></g>
<g><path style="opacity:0.004" fill="#fefffe" d="M 495.5,35.5 C 496.833,36.1667 496.833,36.1667 495.5,35.5 Z"/></g>
<g><path style="opacity:0.004" fill="#fefffe" d="M 375.5,44.5 C 376.833,45.1667 376.833,45.1667 375.5,44.5 Z"/></g>
<g><path style="opacity:0.004" fill="#fefffe" d="M 100.5,50.5 C 101.833,51.1667 101.833,51.1667 100.5,50.5 Z"/></g>
<g><path style="opacity:0.004" fill="#fefffe" d="M 410.5,50.5 C 411.833,51.1667 411.833,51.1667 410.5,50.5 Z"/></g>
<g><path style="opacity:0.004" fill="#fefffe" d="M 263.5,58.5 C 264.833,59.1667 264.833,59.1667 263.5,58.5 Z"/></g>
<g><path style="opacity:0.004" fill="#fefffe" d="M 490.5,61.5 C 491.833,62.1667 491.833,62.1667 490.5,61.5 Z"/></g>
<g><path style="opacity:0.004" fill="#fefffe" d="M 430.5,64.5 C 431.833,65.1667 431.833,65.1667 430.5,64.5 Z"/></g>
<g><path style="opacity:0.004" fill="#fefffe" d="M 480.5,72.5 C 481.833,73.1667 481.833,73.1667 480.5,72.5 Z"/></g>
<g><path style="opacity:0.004" fill="#fefffe" d="M 491.5,72.5 C 492.833,73.1667 492.833,73.1667 491.5,72.5 Z"/></g>
<g><path style="opacity:0.004" fill="#fefffe" d="M 127.5,74.5 C 128.833,75.1667 128.833,75.1667 127.5,74.5 Z"/></g>
<g><path style="opacity:0.975" fill="#fdfdfd" d="M 434.5,146.5 C 433.348,151.985 433.182,157.651 434,163.5C 453.724,180.787 454.891,198.954 437.5,218C 424.187,226.752 410.52,227.419 396.5,220C 375.067,201.012 375.234,182.178 397,163.5C 396.696,157.545 396.529,151.545 396.5,145.5C 393.833,145.5 391.167,145.5 388.5,145.5C 388.51,156.015 383.51,163.181 373.5,167C 370.832,167.567 368.166,168.067 365.5,168.5C 365.5,212.833 365.5,257.167 365.5,301.5C 391.169,301.333 416.835,301.5 442.5,302C 446.487,305.713 446.487,309.38 442.5,313C 365.285,313.724 288.285,314.224 211.5,314.5C 160.452,314.667 109.452,314 58.5,312.5C 55.5102,308.283 56.1769,304.783 60.5,302C 77.0741,301.176 93.5741,301.342 110,302.5C 109.869,256.52 109.369,210.52 108.5,164.5C 99.0527,158.657 95.5527,150.324 98,139.5C 110.13,120.068 122.63,100.901 135.5,82C 200.167,81.3333 264.833,81.3333 329.5,82C 341.833,99.6667 356.833,114.667 374.5,127C 375.376,128.586 376.376,130.086 377.5,131.5C 399.51,132.79 421.51,133.124 443.5,132.5C 448.278,132.391 452.944,132.891 457.5,134C 460.392,136.568 460.725,139.734 458.5,143.5C 456.358,144.601 454.192,145.601 452,146.5C 446.068,145.175 440.234,145.175 434.5,146.5 Z M 141.5,93.5 C 147.842,93.3338 154.175,93.5005 160.5,94C 152.659,107.196 145.825,121.363 140,136.5C 130.891,137.505 121.724,138.005 112.5,138C 115.906,134.949 118.073,131.115 119,126.5C 121.744,124.016 123.744,121.016 125,117.5C 126.067,116.809 127.234,116.309 128.5,116C 128.167,115.667 127.833,115.333 127.5,115C 132.045,107.648 136.711,100.481 141.5,93.5 Z M 173.5,93.5 C 179.5,93.5 185.5,93.5 191.5,93.5C 188.655,104.287 185.489,114.62 182,124.5C 180.971,129.144 180.138,133.81 179.5,138.5C 170.149,137.64 160.815,137.307 151.5,137.5C 159.358,123.117 166.692,108.45 173.5,93.5 Z M 218.5,138.5 C 209.105,139.138 200.105,138.471 191.5,136.5C 195.968,122.317 200.301,107.983 204.5,93.5C 210.868,93.1703 217.202,93.5037 223.5,94.5C 222.005,104.774 220.838,115.107 220,125.5C 219.346,124.304 218.846,124.304 218.5,125.5C 219.828,129.864 219.828,134.197 218.5,138.5 Z M 235.5,93.5 C 241.5,93.5 247.5,93.5 253.5,93.5C 255.166,106.825 256.832,120.158 258.5,133.5C 258.449,135.1 258.116,136.6 257.5,138C 254.333,138.167 251.167,138.333 248,138.5C 242.329,137.903 236.996,137.903 232,138.5C 233.194,123.53 234.361,108.53 235.5,93.5 Z M 266.5,93.5 C 272.537,93.1707 278.537,93.5041 284.5,94.5C 289.604,108.645 294.604,122.812 299.5,137C 296.288,138.079 292.955,138.579 289.5,138.5C 283.504,138.034 277.504,137.7 271.5,137.5C 270.655,122.737 268.988,108.07 266.5,93.5 Z M 298.5,93.5 C 305.09,93.189 311.59,93.5223 318,94.5C 325.163,108.649 332.33,122.816 339.5,137C 330.255,137.817 321.089,137.65 312,136.5C 307.792,122.046 303.292,107.712 298.5,93.5 Z M 345.5,119.5 C 352.002,125.166 358.669,130.666 365.5,136C 361.289,137.534 356.956,137.867 352.5,137C 350.031,131.227 347.697,125.393 345.5,119.5 Z M 408.5,144.5 C 409.224,148.365 409.891,152.365 410.5,156.5C 409.758,157.287 408.925,157.953 408,158.5C 407.227,153.748 407.393,149.081 408.5,144.5 Z M 420.5,144.5 C 421.805,146.397 422.471,148.731 422.5,151.5C 422.333,153.833 422.167,156.167 422,158.5C 420.745,157.789 419.579,156.956 418.5,156C 419.488,152.255 420.155,148.422 420.5,144.5 Z M 111.5,148.5 C 119.812,149.484 128.146,149.817 136.5,149.5C 132.588,153.395 127.922,156.062 122.5,157.5C 117.288,156.279 113.621,153.279 111.5,148.5 Z M 151.5,148.5 C 159.86,148.169 168.193,148.502 176.5,149.5C 167.496,160.486 159.163,160.152 151.5,148.5 Z M 191.5,148.5 C 200.191,149.381 208.858,149.715 217.5,149.5C 208.171,160.488 199.504,160.155 191.5,148.5 Z M 232.5,149.5 C 241.009,148.179 249.675,148.179 258.5,149.5C 249.796,160.157 241.129,160.157 232.5,149.5 Z M 273.5,149.5 C 282.373,148.932 291.373,148.766 300.5,149C 296.994,153.524 292.494,156.357 287,157.5C 281.901,155.913 277.401,153.247 273.5,149.5 Z M 315.5,149.5 C 323.99,148.343 332.657,148.176 341.5,149C 337.811,152.843 333.478,155.676 328.5,157.5C 323.135,156.46 318.802,153.794 315.5,149.5 Z M 355.5,149.5 C 358.817,148.835 362.317,148.501 366,148.5C 380.75,148.072 381.25,150.406 367.5,155.5C 362.936,154.552 358.936,152.552 355.5,149.5 Z M 413.5,168.5 C 427.324,170.657 434.991,178.657 436.5,192.5C 434.746,204.586 427.746,211.253 415.5,212.5C 399.278,210.104 392.445,200.771 395,184.5C 399.217,176.774 405.384,171.441 413.5,168.5 Z M 353.5,179.5 C 353.5,220.167 353.5,260.833 353.5,301.5C 346.833,301.5 340.167,301.5 333.5,301.5C 333.908,265.814 333.408,230.147 332,194.5C 331.5,194 331,193.5 330.5,193C 307.318,192.798 284.152,192.298 261,191.5C 258.019,191.657 255.352,192.657 253,194.5C 251.257,230.507 251.091,266.507 252.5,302.5C 208.848,301.538 165.182,301.204 121.5,301.5C 121.811,261.5 122.145,221.5 122.5,181.5C 128.883,180.654 135.383,179.654 142,178.5C 149.108,179.868 156.275,180.868 163.5,181.5C 170.413,180.395 177.247,179.061 184,177.5C 190.217,179.211 196.551,180.544 203,181.5C 210.481,180.303 217.981,179.303 225.5,178.5C 239.325,181.15 253.159,181.15 267,178.5C 273.453,179.571 279.953,180.237 286.5,180.5C 293.766,180.225 300.933,179.225 308,177.5C 321.553,181.093 335.219,181.427 349,178.5C 350.533,178.773 352.033,179.106 353.5,179.5 Z M 213.5,203.5 C 214.473,204.791 215.473,204.791 216.5,203.5C 216.833,204.5 217.167,205.5 217.5,206.5C 216.638,212.077 216.305,217.577 216.5,223C 208.546,222.637 200.546,222.47 192.5,222.5C 193.802,216.212 193.802,210.212 192.5,204.5C 199.687,204.825 206.687,204.491 213.5,203.5 Z M 156.5,204.5 C 164.5,204.5 172.5,204.5 180.5,204.5C 180.19,210.758 180.524,216.924 181.5,223C 173.173,223.5 164.84,223.666 156.5,223.5C 157.646,217.178 157.646,210.845 156.5,204.5 Z M 264.5,204.5 C 283.171,205.661 301.838,205.661 320.5,204.5C 320.5,236.833 320.5,269.167 320.5,301.5C 301.833,301.5 283.167,301.5 264.5,301.5C 264.5,269.167 264.5,236.833 264.5,204.5 Z M 156.5,234.5 C 164.833,234.5 173.167,234.5 181.5,234.5C 180.167,241.167 180.167,247.833 181.5,254.5C 173.167,254.5 164.833,254.5 156.5,254.5C 156.5,247.833 156.5,241.167 156.5,234.5 Z M 192.5,234.5 C 200.833,234.5 209.167,234.5 217.5,234.5C 217.5,241.167 217.5,247.833 217.5,254.5C 209.167,254.5 200.833,254.5 192.5,254.5C 192.5,247.833 192.5,241.167 192.5,234.5 Z M 146.5,268.5 C 171.836,268.333 197.169,268.5 222.5,269C 223.451,272.057 223.784,275.223 223.5,278.5C 197.824,277.742 172.158,277.742 146.5,278.5C 146.5,275.167 146.5,271.833 146.5,268.5 Z"/></g>
<g><path style="opacity:0.004" fill="#fefffe" d="M 389.5,92.5 C 390.833,93.1667 390.833,93.1667 389.5,92.5 Z"/></g>
<g><path style="opacity:0.004" fill="#fefffe" d="M 443.5,119.5 C 444.833,120.167 444.833,120.167 443.5,119.5 Z"/></g>
<g><path style="opacity:0.004" fill="#fefffe" d="M 481.5,124.5 C 482.833,125.167 482.833,125.167 481.5,124.5 Z"/></g>
<g><path style="opacity:0.528" fill="#878f89" d="M 191.5,136.5 C 200.105,138.471 209.105,139.138 218.5,138.5C 209.918,139.499 200.585,139.832 190.5,139.5C 190.263,138.209 190.596,137.209 191.5,136.5 Z"/></g>
<g><path style="opacity:0.055" fill="#fefffe" d="M 434.5,146.5 C 435.833,147.167 435.833,147.167 434.5,146.5 Z"/></g>
<g><path style="opacity:0.055" fill="#fefffe" d="M 483.5,146.5 C 484.833,147.167 484.833,147.167 483.5,146.5 Z"/></g>
<g><path style="opacity:0.055" fill="#fefffe" d="M 394.5,151.5 C 395.833,152.167 395.833,152.167 394.5,151.5 Z"/></g>
<g><path style="opacity:0.055" fill="#fefffe" d="M 463.5,152.5 C 464.833,153.167 464.833,153.167 463.5,152.5 Z"/></g>
<g><path style="opacity:0.055" fill="#fefffe" d="M 380.5,164.5 C 381.833,165.167 381.833,165.167 380.5,164.5 Z"/></g>
<g><path style="opacity:1" fill="#c0beb5" d="M 353.5,179.5 C 352.033,179.106 350.533,178.773 349,178.5C 335.219,181.427 321.553,181.093 308,177.5C 300.933,179.225 293.766,180.225 286.5,180.5C 279.953,180.237 273.453,179.571 267,178.5C 253.159,181.15 239.325,181.15 225.5,178.5C 217.981,179.303 210.481,180.303 203,181.5C 196.551,180.544 190.217,179.211 184,177.5C 177.247,179.061 170.413,180.395 163.5,181.5C 156.275,180.868 149.108,179.868 142,178.5C 135.383,179.654 128.883,180.654 122.5,181.5C 121.515,177.366 121.182,173.032 121.5,168.5C 130.604,168.698 137.771,165.031 143,157.5C 152.668,169.384 164.168,171.55 177.5,164C 179.709,162.127 181.542,159.96 183,157.5C 196.532,171.705 210.365,172.038 224.5,158.5C 234.789,169.192 246.456,171.025 259.5,164C 261.684,161.984 263.684,159.817 265.5,157.5C 276.22,169.825 288.553,171.659 302.5,163C 304.35,160.982 306.35,159.149 308.5,157.5C 321.771,172.086 335.104,172.086 348.5,157.5C 351.194,159.527 353.527,161.861 355.5,164.5C 354.887,169.553 354.22,174.553 353.5,179.5 Z"/></g>
<g><path style="opacity:0.055" fill="#fefffe" d="M 375.5,178.5 C 376.833,179.167 376.833,179.167 375.5,178.5 Z"/></g>
<g><path style="opacity:0.055" fill="#fefffe" d="M 466.5,184.5 C 467.833,185.167 467.833,185.167 466.5,184.5 Z"/></g>
<g><path style="opacity:0.055" fill="#fefffe" d="M 472.5,186.5 C 473.833,187.167 473.833,187.167 472.5,186.5 Z"/></g>
<g><path style="opacity:0.973" fill="#fefefe" d="M 150.5,191.5 C 171.825,192.807 193.158,192.807 214.5,191.5C 218.569,191.504 222.569,192.004 226.5,193C 228.176,195.174 229.176,197.674 229.5,200.5C 228.674,218.372 228.341,236.372 228.5,254.5C 233.67,254.233 236.67,256.566 237.5,261.5C 236.409,271.525 235.076,281.358 233.5,291C 202.406,290.367 171.406,290.534 140.5,291.5C 137.885,291.144 136.052,289.811 135,287.5C 134.558,278.129 134.391,268.963 134.5,260C 136.821,255.67 140.488,253.67 145.5,254C 144.341,234.573 144.174,215.073 145,195.5C 145.374,194.584 145.874,193.75 146.5,193C 148.058,192.79 149.391,192.29 150.5,191.5 Z M 213.5,203.5 C 206.687,204.491 199.687,204.825 192.5,204.5C 193.802,210.212 193.802,216.212 192.5,222.5C 200.546,222.47 208.546,222.637 216.5,223C 216.305,217.577 216.638,212.077 217.5,206.5C 217.167,205.5 216.833,204.5 216.5,203.5C 215.473,204.791 214.473,204.791 213.5,203.5 Z M 156.5,204.5 C 157.646,210.845 157.646,217.178 156.5,223.5C 164.84,223.666 173.173,223.5 181.5,223C 180.524,216.924 180.19,210.758 180.5,204.5C 172.5,204.5 164.5,204.5 156.5,204.5 Z M 156.5,234.5 C 156.5,241.167 156.5,247.833 156.5,254.5C 164.833,254.5 173.167,254.5 181.5,254.5C 180.167,247.833 180.167,241.167 181.5,234.5C 173.167,234.5 164.833,234.5 156.5,234.5 Z M 192.5,234.5 C 192.5,241.167 192.5,247.833 192.5,254.5C 200.833,254.5 209.167,254.5 217.5,254.5C 217.5,247.833 217.5,241.167 217.5,234.5C 209.167,234.5 200.833,234.5 192.5,234.5 Z M 146.5,268.5 C 146.5,271.833 146.5,275.167 146.5,278.5C 172.158,277.742 197.824,277.742 223.5,278.5C 223.784,275.223 223.451,272.057 222.5,269C 197.169,268.5 171.836,268.333 146.5,268.5 Z"/></g>
<g><path style="opacity:0.055" fill="#fefffe" d="M 372.5,199.5 C 373.833,200.167 373.833,200.167 372.5,199.5 Z"/></g>
<g><path style="opacity:0.004" fill="#fefffe" d="M 48.5,210.5 C 49.8333,211.167 49.8333,211.167 48.5,210.5 Z"/></g>
<g><path style="opacity:0.928" fill="#fefefe" d="M 312.5,244.5 C 311.322,252.55 306.988,255.383 299.5,253C 295.074,247.559 295.741,242.892 301.5,239C 306.859,237.679 310.526,239.513 312.5,244.5 Z"/></g>
<g><path style="opacity:0.055" fill="#fefffe" d="M 452.5,239.5 C 453.833,240.167 453.833,240.167 452.5,239.5 Z"/></g>
<g><path style="opacity:0.055" fill="#fefffe" d="M 380.5,240.5 C 381.833,241.167 381.833,241.167 380.5,240.5 Z"/></g>
<g><path style="opacity:0.055" fill="#fefffe" d="M 387.5,240.5 C 388.833,241.167 388.833,241.167 387.5,240.5 Z"/></g>
<g><path style="opacity:0.004" fill="#fefffe" d="M 66.5,275.5 C 67.8333,276.167 67.8333,276.167 66.5,275.5 Z"/></g>
<g><path style="opacity:0.004" fill="#fefffe" d="M 55.5,319.5 C 56.8333,320.167 56.8333,320.167 55.5,319.5 Z"/></g>
<g><path style="opacity:0.055" fill="#fefffe" d="M 258.5,321.5 C 259.833,322.167 259.833,322.167 258.5,321.5 Z"/></g>
<g><path style="opacity:0.055" fill="#fefffe" d="M 92.5,325.5 C 93.8333,326.167 93.8333,326.167 92.5,325.5 Z"/></g>
<g><path style="opacity:0.958" fill="#fefefe" d="M 52.5,332.5 C 58.0748,333.452 63.7414,333.786 69.5,333.5C 69.5,336.167 69.5,338.833 69.5,341.5C 66.1667,341.5 62.8333,341.5 59.5,341.5C 59.5,351.5 59.5,361.5 59.5,371.5C 56.5,371.5 53.5,371.5 50.5,371.5C 50.5,361.5 50.5,351.5 50.5,341.5C 47.4816,341.665 44.4816,341.498 41.5,341C 40.565,338.619 40.2317,336.119 40.5,333.5C 44.7016,333.817 48.7016,333.483 52.5,332.5 Z"/></g>
<g><path style="opacity:0.957" fill="#fefefe" d="M 227.5,332.5 C 233.145,331.832 238.145,333.166 242.5,336.5C 241.907,338.382 241.24,340.215 240.5,342C 226.812,337.957 220.978,343.123 223,357.5C 224.196,361.866 227.029,364.199 231.5,364.5C 234.566,364.087 237.566,363.42 240.5,362.5C 241.995,365.645 241.662,368.478 239.5,371C 219.707,374.877 211.207,366.711 214,346.5C 216.017,339.318 220.517,334.652 227.5,332.5 Z"/></g>
<g><path style="opacity:0.962" fill="#fefefe" d="M 259.5,332.5 C 274.731,330.899 282.731,337.733 283.5,353C 281.461,369.198 272.461,375.198 256.5,371C 247.392,364.915 244.225,356.415 247,345.5C 247.937,342.344 249.437,339.511 251.5,337C 254.191,335.395 256.858,333.895 259.5,332.5 Z M 261.5,340.5 C 267.345,339.668 271.179,342.001 273,347.5C 274.409,353.354 273.243,358.521 269.5,363C 264.238,365.465 260.071,364.299 257,359.5C 256.333,354.833 256.333,350.167 257,345.5C 258.366,343.638 259.866,341.972 261.5,340.5 Z"/></g>
<g><path style="opacity:0.963" fill="#fefefe" d="M 414.5,332.5 C 419.371,332.192 424.037,333.025 428.5,335C 429.629,338.255 428.629,340.755 425.5,342.5C 412.626,338.866 407.459,343.866 410,357.5C 411.196,361.866 414.029,364.199 418.5,364.5C 421.566,364.087 424.566,363.42 427.5,362.5C 428.995,365.645 428.662,368.478 426.5,371C 418.017,373.837 410.517,372.337 404,366.5C 400.177,358.8 399.51,350.8 402,342.5C 404.91,337.406 409.077,334.072 414.5,332.5 Z"/></g>
<g><path style="opacity:0.985" fill="#fefefe" d="M 473.5,332.5 C 491.14,331.639 498.973,339.973 497,357.5C 490.639,369.726 481.139,372.893 468.5,367C 458.677,357.612 458.01,347.612 466.5,337C 468.898,335.476 471.231,333.976 473.5,332.5 Z"/></g>
<g><path style="opacity:0.983" fill="#fdfdfd" d="M 16.5,332.5 C 32.4424,331.943 40.2758,339.609 40,355.5C 33.7337,369.869 23.5671,373.369 9.5,366C 2.81571,359.902 0.982381,352.402 4,343.5C 7.1476,338.509 11.3143,334.843 16.5,332.5 Z"/></g>
<g><path style="opacity:0.963" fill="#fefefe" d="M 83.5,332.5 C 87.1064,332.211 90.6064,332.544 94,333.5C 98.0984,346.186 102.598,358.686 107.5,371C 104.167,371.667 100.833,371.667 97.5,371C 96.1328,368.699 95.4661,366.199 95.5,363.5C 90.8333,363.5 86.1667,363.5 81.5,363.5C 81.2208,366.118 80.5541,368.618 79.5,371C 76.5184,371.498 73.5184,371.665 70.5,371.5C 74.1294,358.611 78.4628,345.611 83.5,332.5 Z M 88.5,343.5 C 90.2127,347.115 91.546,350.949 92.5,355C 89.7728,355.818 87.1062,355.652 84.5,354.5C 85.6858,350.742 87.0191,347.075 88.5,343.5 Z"/></g>
<g><path style="opacity:0.973" fill="#fefefe" d="M 110.5,333.5 C 116.509,333.334 122.509,333.501 128.5,334C 136.594,336.811 139.094,342.311 136,350.5C 134.457,352.378 132.624,353.878 130.5,355C 134.414,360.159 138.08,365.493 141.5,371C 138.167,371.667 134.833,371.667 131.5,371C 128.627,367.423 126.127,363.589 124,359.5C 122.89,357.963 121.39,357.297 119.5,357.5C 119.5,362.167 119.5,366.833 119.5,371.5C 116.5,371.5 113.5,371.5 110.5,371.5C 110.5,358.833 110.5,346.167 110.5,333.5 Z M 119.5,341.5 C 125.917,340.163 128.25,342.496 126.5,348.5C 124.253,349.374 121.92,349.708 119.5,349.5C 119.5,346.833 119.5,344.167 119.5,341.5 Z"/></g>
<g><path style="opacity:0.965" fill="#fefefe" d="M 188.5,332.5 C 191.777,332.216 194.943,332.549 198,333.5C 202.595,345.784 207.095,358.117 211.5,370.5C 208.167,371.833 204.833,371.833 201.5,370.5C 200.894,368.291 200.227,366.124 199.5,364C 195.129,363.172 190.795,363.339 186.5,364.5C 185.423,366.729 184.756,369.063 184.5,371.5C 178.158,371.666 171.825,371.5 165.5,371C 162.602,367.095 160.102,362.929 158,358.5C 156.644,357.62 155.144,357.286 153.5,357.5C 153.5,362.167 153.5,366.833 153.5,371.5C 150.5,371.5 147.5,371.5 144.5,371.5C 144.5,358.833 144.5,346.167 144.5,333.5C 151.906,333.152 159.239,333.652 166.5,335C 171.681,339.567 172.847,345.067 170,351.5C 168.649,353.019 167.149,354.352 165.5,355.5C 168.419,360.34 171.586,365.006 175,369.5C 179.046,356.969 183.546,344.635 188.5,332.5 Z M 153.5,341.5 C 155.527,341.338 157.527,341.505 159.5,342C 163.037,343.826 163.371,346.16 160.5,349C 158.19,349.497 155.857,349.663 153.5,349.5C 153.5,346.833 153.5,344.167 153.5,341.5 Z M 192.5,342.5 C 194.594,346.608 195.927,350.774 196.5,355C 194.19,355.497 191.857,355.663 189.5,355.5C 190.652,351.225 191.652,346.892 192.5,342.5 Z"/></g>
<g><path style="opacity:0.975" fill="#fefefe" d="M 322.5,371.5 C 322.5,363.5 322.5,355.5 322.5,347.5C 322.539,345.776 322.206,345.443 321.5,346.5C 320.596,347.209 320.263,348.209 320.5,349.5C 318.494,356.517 316.327,363.517 314,370.5C 311,371.833 308,371.833 305,370.5C 302.667,362.833 300.333,355.167 298,347.5C 297.2,355.216 297.367,362.883 298.5,370.5C 295.572,371.484 292.572,371.817 289.5,371.5C 289.5,358.833 289.5,346.167 289.5,333.5C 293.555,333.176 297.555,333.509 301.5,334.5C 304.048,342.978 306.881,351.311 310,359.5C 312.516,351.097 315.183,342.763 318,334.5C 322.066,333.536 326.233,333.203 330.5,333.5C 330.5,346.167 330.5,358.833 330.5,371.5C 327.833,371.5 325.167,371.5 322.5,371.5 Z"/></g>
<g><path style="opacity:0.986" fill="#f5f5f4" d="M 338.5,333.5 C 346.167,333.5 353.833,333.5 361.5,333.5C 361.663,335.857 361.497,338.19 361,340.5C 357.333,341.167 353.667,341.833 350,342.5C 349.586,342.043 349.086,341.709 348.5,341.5C 347.534,343.396 347.201,345.396 347.5,347.5C 351.514,347.334 355.514,347.501 359.5,348C 360.435,350.381 360.768,352.881 360.5,355.5C 356.167,355.5 351.833,355.5 347.5,355.5C 347.5,358.167 347.5,360.833 347.5,363.5C 351.846,363.334 356.179,363.501 360.5,364C 361.435,366.381 361.768,368.881 361.5,371.5C 353.833,371.5 346.167,371.5 338.5,371.5C 338.5,358.833 338.5,346.167 338.5,333.5 Z"/></g>
<g><path style="opacity:0.971" fill="#fefefe" d="M 367.5,333.5 C 373.509,333.334 379.509,333.501 385.5,334C 392.585,336.336 395.418,341.169 394,348.5C 392.559,351.276 390.726,353.776 388.5,356C 391.426,361.262 394.759,366.262 398.5,371C 395.167,371.667 391.833,371.667 388.5,371C 385.636,366.967 382.969,362.801 380.5,358.5C 379.311,357.571 377.978,357.238 376.5,357.5C 376.5,362.167 376.5,366.833 376.5,371.5C 373.5,371.5 370.5,371.5 367.5,371.5C 367.5,358.833 367.5,346.167 367.5,333.5 Z M 376.5,341.5 C 380.325,340.789 383.325,341.955 385.5,345C 384.833,346.333 384.167,347.667 383.5,349C 381.19,349.497 378.857,349.663 376.5,349.5C 376.5,346.833 376.5,344.167 376.5,341.5 Z"/></g>
<g><path style="opacity:0.976" fill="#fefefe" d="M 444.5,355.5 C 443.523,358.287 443.19,361.287 443.5,364.5C 448.167,364.5 452.833,364.5 457.5,364.5C 457.5,366.833 457.5,369.167 457.5,371.5C 450.167,371.5 442.833,371.5 435.5,371.5C 435.5,358.833 435.5,346.167 435.5,333.5C 442.833,333.5 450.167,333.5 457.5,333.5C 457.5,336.167 457.5,338.833 457.5,341.5C 453.167,341.5 448.833,341.5 444.5,341.5C 444.5,343.5 444.5,345.5 444.5,347.5C 448.5,347.5 452.5,347.5 456.5,347.5C 456.5,350.167 456.5,352.833 456.5,355.5C 452.5,355.5 448.5,355.5 444.5,355.5 Z"/></g>
<g><path style="opacity:0.035" fill="#bfc0b0" d="M 321.5,346.5 C 321.5,347.167 321.833,347.5 322.5,347.5C 322.5,355.5 322.5,363.5 322.5,371.5C 321.833,364.167 321.167,356.833 320.5,349.5C 320.263,348.209 320.596,347.209 321.5,346.5 Z"/></g>
<g><path style="opacity:0.118" fill="#c2c5b7" d="M 444.5,355.5 C 444.5,358.167 444.5,360.833 444.5,363.5C 449.032,363.182 453.366,363.515 457.5,364.5C 452.833,364.5 448.167,364.5 443.5,364.5C 443.19,361.287 443.523,358.287 444.5,355.5 Z"/></g>
<g><path style="opacity:0.004" fill="#fefffe" d="M 146.5,379.5 C 147.833,380.167 147.833,380.167 146.5,379.5 Z"/></g>
<g><path style="opacity:0.004" fill="#fefffe" d="M 123.5,383.5 C 124.833,384.167 124.833,384.167 123.5,383.5 Z"/></g>
<g><path style="opacity:0.004" fill="#fefffe" d="M 132.5,384.5 C 133.833,385.167 133.833,385.167 132.5,384.5 Z"/></g>
<g><path style="opacity:0.004" fill="#fefffe" d="M 496.5,395.5 C 497.833,396.167 497.833,396.167 496.5,395.5 Z"/></g>
<g><path style="opacity:0.004" fill="#fefffe" d="M 493.5,400.5 C 494.833,401.167 494.833,401.167 493.5,400.5 Z"/></g>
<g><path style="opacity:0.004" fill="#fefffe" d="M 224.5,406.5 C 225.833,407.167 225.833,407.167 224.5,406.5 Z"/></g>
<g><path style="opacity:0.004" fill="#fefffe" d="M 327.5,408.5 C 328.833,409.167 328.833,409.167 327.5,408.5 Z"/></g>
<g><path style="opacity:0.004" fill="#fefffe" d="M 27.5,409.5 C 28.8333,410.167 28.8333,410.167 27.5,409.5 Z"/></g>
<g><path style="opacity:0.004" fill="#fefffe" d="M 463.5,414.5 C 464.833,415.167 464.833,415.167 463.5,414.5 Z"/></g>
<g><path style="opacity:0.004" fill="#fefffe" d="M 174.5,420.5 C 175.833,421.167 175.833,421.167 174.5,420.5 Z"/></g>
<g><path style="opacity:0.004" fill="#fefffe" d="M 235.5,424.5 C 236.833,425.167 236.833,425.167 235.5,424.5 Z"/></g>
<g><path style="opacity:0.004" fill="#fefffe" d="M 458.5,428.5 C 459.833,429.167 459.833,429.167 458.5,428.5 Z"/></g>
<g><path style="opacity:0.004" fill="#fefffe" d="M 140.5,430.5 C 141.833,431.167 141.833,431.167 140.5,430.5 Z"/></g>
<g><path style="opacity:0.004" fill="#fefffe" d="M 103.5,433.5 C 104.833,434.167 104.833,434.167 103.5,433.5 Z"/></g>
<g><path style="opacity:0.004" fill="#fefffe" d="M 168.5,435.5 C 169.833,436.167 169.833,436.167 168.5,435.5 Z"/></g>
<g><path style="opacity:0.004" fill="#fefffe" d="M 486.5,435.5 C 487.833,436.167 487.833,436.167 486.5,435.5 Z"/></g>
<g><path style="opacity:0.004" fill="#fefffe" d="M 340.5,438.5 C 341.833,439.167 341.833,439.167 340.5,438.5 Z"/></g>
<g><path style="opacity:0.004" fill="#fefffe" d="M 481.5,449.5 C 482.833,450.167 482.833,450.167 481.5,449.5 Z"/></g>
<g><path style="opacity:0.004" fill="#fefffe" d="M 406.5,453.5 C 407.833,454.167 407.833,454.167 406.5,453.5 Z"/></g>
<g><path style="opacity:0.004" fill="#fefffe" d="M 152.5,466.5 C 153.833,467.167 153.833,467.167 152.5,466.5 Z"/></g>
<g><path style="opacity:0.004" fill="#fefffe" d="M 368.5,477.5 C 369.833,478.167 369.833,478.167 368.5,477.5 Z"/></g>
<g><path style="opacity:0.004" fill="#fefffe" d="M 350.5,487.5 C 351.833,488.167 351.833,488.167 350.5,487.5 Z"/></g>
</svg>
