<?xml version="1.0" encoding="UTF-8"?>
<!DOCTYPE svg PUBLIC "-//W3C//DTD SVG 1.1//EN" "http://www.w3.org/Graphics/SVG/1.1/DTD/svg11.dtd">
<svg xmlns="http://www.w3.org/2000/svg" version="1.1" width="512px" height="512px" style="shape-rendering:geometricPrecision; text-rendering:geometricPrecision; image-rendering:optimizeQuality; fill-rule:evenodd; clip-rule:evenodd" xmlns:xlink="http://www.w3.org/1999/xlink">
<g><path style="opacity:1" fill="#b4916c" d="M 225.5,-0.5 C 245.5,-0.5 265.5,-0.5 285.5,-0.5C 293.976,2.4687 300.142,8.13536 304,16.5C 306.184,28.4559 308.184,40.4559 310,52.5C 327.217,58.106 343.883,65.106 360,73.5C 367.905,67.7938 375.739,61.9605 383.5,56C 394.779,48.2572 406.112,47.9239 417.5,55C 430.333,67.8333 443.167,80.6667 456,93.5C 461.205,102.131 462.205,111.131 459,120.5C 452.207,130.954 445.041,141.121 437.5,151C 445.898,166.864 452.732,183.364 458,200.5C 470.12,202.756 482.287,204.923 494.5,207C 502.865,210.858 508.531,217.024 511.5,225.5C 511.5,245.5 511.5,265.5 511.5,285.5C 508.531,293.976 502.865,300.142 494.5,304C 482.544,306.184 470.544,308.184 458.5,310C 452.894,327.217 445.894,343.883 437.5,360C 443.206,367.905 449.04,375.739 455,383.5C 462.713,394.762 463.046,406.096 456,417.5C 443.167,430.333 430.333,443.167 417.5,456C 408.974,460.704 399.974,461.704 390.5,459C 380.046,452.207 369.879,445.041 360,437.5C 344.136,445.898 327.636,452.732 310.5,458C 308.244,470.12 306.077,482.287 304,494.5C 300.167,502.838 294,508.505 285.5,511.5C 265.5,511.5 245.5,511.5 225.5,511.5C 217.024,508.531 210.858,502.865 207,494.5C 204.816,482.544 202.816,470.544 201,458.5C 183.783,452.894 167.117,445.894 151,437.5C 143.095,443.206 135.261,449.04 127.5,455C 116.367,461.942 105.033,462.275 93.5,456C 80.6667,443.167 67.8333,430.333 55,417.5C 49.6812,408.942 48.6812,399.942 52,390.5C 58.7925,380.046 65.9592,369.879 73.5,360C 65.1016,344.136 58.2683,327.636 53,310.5C 40.8809,308.244 28.7142,306.077 16.5,304C 8.16212,300.167 2.49545,294 -0.5,285.5C -0.5,265.167 -0.5,244.833 -0.5,224.5C 2.89464,216.603 8.56131,210.77 16.5,207C 28.7142,204.923 40.8809,202.756 53,200.5C 58.2683,183.364 65.1016,166.864 73.5,151C 65.9592,141.121 58.7925,130.954 52,120.5C 48.6812,111.058 49.6812,102.058 55,93.5C 67.8333,80.6667 80.6667,67.8333 93.5,55C 104.888,47.9239 116.221,48.2572 127.5,56C 135.261,61.9605 143.095,67.7938 151,73.5C 167.117,65.106 183.783,58.106 201,52.5C 202.816,40.4559 204.816,28.4559 207,16.5C 210.858,8.13536 217.024,2.4687 225.5,-0.5 Z M 232.5,23.5 C 248.215,23.1822 263.881,23.5156 279.5,24.5C 282.152,36.361 284.319,48.361 286,60.5C 288.379,67.5433 292.879,72.71 299.5,76C 317.289,81.0602 334.289,88.0602 350.5,97C 360.694,100.044 370.027,98.3778 378.5,92C 385.729,85.8042 393.229,79.9709 401,74.5C 413.5,85.6667 425.333,97.5 436.5,110C 430,118.5 423.5,127 417,135.5C 412.404,143.39 411.404,151.723 414,160.5C 422.94,176.711 429.94,193.711 435,211.5C 438.29,218.121 443.457,222.621 450.5,225C 461.47,226.853 472.47,228.52 483.5,230C 485.061,230.318 486.228,231.151 487,232.5C 487.817,248.211 487.651,263.878 486.5,279.5C 474.647,282.171 462.647,284.338 450.5,286C 443.457,288.379 438.29,292.879 435,299.5C 429.94,317.289 422.94,334.289 414,350.5C 410.956,360.694 412.622,370.027 419,378.5C 425.196,385.729 431.029,393.229 436.5,401C 425.333,413.5 413.5,425.333 401,436.5C 392.5,430 384,423.5 375.5,417C 367.61,412.404 359.277,411.404 350.5,414C 334.289,422.94 317.289,429.94 299.5,435C 292.879,438.29 288.379,443.457 286,450.5C 284.088,461.461 282.422,472.461 281,483.5C 280.682,485.061 279.849,486.228 278.5,487C 262.789,487.817 247.122,487.651 231.5,486.5C 228.848,474.639 226.681,462.639 225,450.5C 222.621,443.457 218.121,438.29 211.5,435C 193.711,429.94 176.711,422.94 160.5,414C 150.306,410.956 140.973,412.622 132.5,419C 125.271,425.196 117.771,431.029 110,436.5C 97.5,425.333 85.6667,413.5 74.5,401C 82.8589,391.116 90.3589,380.616 97,369.5C 99,363.167 99,356.833 97,350.5C 88.0662,334.299 81.0662,317.299 76,299.5C 72.71,292.879 67.5433,288.379 60.5,286C 49.5394,284.088 38.5394,282.422 27.5,281C 25.9391,280.682 24.7724,279.849 24,278.5C 23.1825,262.789 23.3492,247.122 24.5,231.5C 36.361,228.848 48.361,226.681 60.5,225C 67.5433,222.621 72.71,218.121 76,211.5C 81.0602,193.711 88.0602,176.711 97,160.5C 100.044,150.306 98.3778,140.973 92,132.5C 85.8042,125.271 79.9709,117.771 74.5,110C 85.6667,97.5 97.5,85.6667 110,74.5C 118.5,81 127,87.5 135.5,94C 143.39,98.5964 151.723,99.5964 160.5,97C 176.711,88.0602 193.711,81.0602 211.5,76C 218.121,72.71 222.621,67.5433 225,60.5C 226.911,49.5435 228.578,38.5435 230,27.5C 230.48,25.867 231.313,24.5336 232.5,23.5 Z M 249.5,168.5 C 296.46,169.042 326.627,191.709 340,236.5C 347.015,279.297 331.848,311.464 294.5,333C 252.102,350.524 215.936,342.024 186,307.5C 161.692,270.209 163.025,233.876 190,198.5C 206.048,180.893 225.882,170.893 249.5,168.5 Z"/></g>
<g><path style="opacity:1" fill="#b4916c" d="M 250.5,143.5 C 300.252,143.939 336.085,166.272 358,210.5C 374.09,252.222 368.757,290.889 342,326.5C 307.039,364.45 264.872,375.617 215.5,360C 161.431,335.043 138.265,292.877 146,233.5C 156.07,191.767 181.237,163.601 221.5,149C 231.148,146.284 240.815,144.451 250.5,143.5 Z M 249.5,168.5 C 225.882,170.893 206.048,180.893 190,198.5C 163.025,233.876 161.692,270.209 186,307.5C 215.936,342.024 252.102,350.524 294.5,333C 331.848,311.464 347.015,279.297 340,236.5C 326.627,191.709 296.46,169.042 249.5,168.5 Z"/></g>
</svg>
